# Blender v2.67 (sub 0) OBJ File: ''
# www.blender.org
mtllib skycube_1.mtl
o back_back-geometry
v 10.000000 9.999998 10.000002
v 10.000000 -10.000002 9.999998
v -10.000000 9.999998 10.000002
v -10.000000 -10.000002 9.999998
vt 0.000000 1.000000
vt 0.000000 0.000000
vt 1.000000 1.000000
vt 1.000000 0.000000
vn 0.000000 0.000000 -1.000000
usemtl universe_back.xml
s off
f 1/1/1 2/2/1 3/3/1
f 2/2/1 4/4/1 3/3/1
o front_front-geometry
v -10.000000 10.000002 -9.999998
v -10.000000 -9.999998 -10.000002
v 10.000000 10.000002 -9.999998
v 10.000000 -9.999998 -10.000002
vt 0.000000 1.000000
vt 0.000000 0.000000
vt 1.000000 1.000000
vt 1.000000 0.000000
vn 0.000000 -0.000000 1.000000
usemtl universe_front.xml
s off
f 5/5/2 6/6/2 7/7/2
f 6/6/2 8/8/2 7/7/2
o right_right-geometry
v 10.000000 10.000002 -9.999998
v 10.000000 -9.999998 -10.000002
v 10.000000 9.999998 10.000002
v 10.000000 -10.000002 9.999998
vt 0.000000 1.000000
vt 0.000000 0.000000
vt 1.000000 1.000000
vt 1.000000 0.000000
vn -1.000000 0.000000 -0.000000
usemtl universe_right.xml
s off
f 9/9/3 10/10/3 11/11/3
f 10/10/3 12/12/3 11/11/3
o left_left-geometry
v -10.000000 9.999998 10.000002
v -10.000000 -10.000002 9.999998
v -10.000000 10.000002 -9.999998
v -10.000000 -9.999998 -10.000002
vt 0.000000 1.000000
vt 0.000000 0.000000
vt 1.000000 1.000000
vt 1.000000 0.000000
vn 1.000000 0.000000 -0.000000
usemtl universe_left.xml
s off
f 13/13/4 14/14/4 15/15/4
f 14/14/4 16/16/4 15/15/4
o bottom_bottom-geometry
v -10.000000 -9.999998 -10.000002
v -10.000000 -10.000002 9.999998
v 10.000000 -9.999998 -10.000002
v 10.000000 -10.000002 9.999998
vt 0.000000 1.000000
vt 0.000000 0.000000
vt 1.000000 1.000000
vt 1.000000 0.000000
vn 0.000000 1.000000 0.000000
usemtl universe_bottom.xml
s off
f 17/17/5 18/18/5 19/19/5
f 18/18/5 20/20/5 19/19/5
o top_top-geometry
v -10.000000 9.999998 10.000002
v -10.000000 10.000002 -9.999998
v 10.000000 9.999998 10.000002
v 10.000000 10.000002 -9.999998
vt 0.000000 1.000000
vt 0.000000 0.000000
vt 1.000000 1.000000
vt 1.000000 0.000000
vn 0.000000 -1.000000 -0.000000
usemtl universe_top.xml
s off
f 21/21/6 22/22/6 23/23/6
f 22/22/6 24/24/6 23/23/6
